<?xml version="1.0" standalone="no"?>
<svg xmlns="http://www.w3.org/2000/svg" xmlns:xlink="http://www.w3.org/1999/xlink" width="540" height="361" viewBox="0 0 540 361">
  <defs>
    <clipPath id="clip-mod-_MCBT">
      <rect width="540" height="361"/>
    </clipPath>
  </defs>
  <g id="mod-_MCBT" data-name="mod- MCBT" clip-path="url(#clip-mod-_MCBT)">
    <g id="Group_1977" data-name="Group 1977" transform="translate(31.869 -55.672)">
      <g id="Group_1939" data-name="Group 1939" transform="translate(80.294 119.4)">
        <g id="Group_1937" data-name="Group 1937" transform="translate(0 110.282)">
          <path id="Path_1844" data-name="Path 1844" d="M113.808,155.385a19.436,19.436,0,0,0-7.826,3.481,16.864,16.864,0,1,1,.053-26.839,18.984,18.984,0,0,0,7.774,3.448Z" transform="translate(-78.954 -128.571)" fill="#0060af"/>
        </g>
        <g id="Group_1938" data-name="Group 1938" transform="translate(34.852)">
          <rect id="Rectangle_460" data-name="Rectangle 460" width="254.275" height="254.275" fill="#0060af"/>
        </g>
      </g>
      <g id="Group_1941" data-name="Group 1941" transform="translate(323.893 154.517)">
        <g id="Group_1940" data-name="Group 1940">
          <path id="Path_1845" data-name="Path 1845" d="M186.453,183.8a14.3,14.3,0,0,0,2.576-13.453,34.624,34.624,0,0,1,7.547-34.11,14.674,14.674,0,0,0,3.875-12.325,22.012,22.012,0,0,1-.209-5.446,21.694,21.694,0,1,1,43.032,5.328,14.691,14.691,0,0,0,3.938,12.312,34.622,34.622,0,0,1,7.809,33.791,14.94,14.94,0,0,0,2.694,13.888,46.211,46.211,0,1,1-71.263.015Z" transform="translate(-175.88 -98.664)" fill="#ffc84f"/>
        </g>
        <path id="Path_1846" data-name="Path 1846" d="M209.8,306.582l-.2-80.5-26.067-25.69,1.4-1.424,24.658,24.3-.1-38.832-17.325-17.079,1.4-1.424,15.915,15.684-.087-34.6-12.775-12.594,1.4-1.424,11.365,11.2-.1-38.1,2-.006.095,37.5L222,132.823l1.425,1.4-12.029,12.2.089,34.931,15.451-15.678,1.425,1.4-16.869,17.115.1,39.2,24.461-24.819,1.425,1.4L211.6,226.254l.2,80.321Z" transform="translate(-164.305 -87.424)" fill="#483c32"/>
      </g>
      <g id="Group_1943" data-name="Group 1943" transform="translate(78.069 161.63)">
        <g id="Group_1942" data-name="Group 1942">
          <path id="Path_1847" data-name="Path 1847" d="M98.723,116.747a20.906,20.906,0,0,1,5.145.641,25.943,25.943,0,0,1,49.428,5.333A15.715,15.715,0,0,1,173.8,134.576H78.069A20.885,20.885,0,0,1,98.723,116.747Z" transform="translate(-78.069 -101.494)" fill="#fba24a"/>
        </g>
      </g>
      <g id="Group_1946" data-name="Group 1946" transform="translate(249.782 85.069)">
        <g id="Group_1945" data-name="Group 1945">
          <g id="Group_1944" data-name="Group 1944">
            <path id="Path_1848" data-name="Path 1848" d="M247.5,91.574a28.222,28.222,0,0,0-6.927.862,34.937,34.937,0,0,0-66.566,7.183,21.163,21.163,0,0,0-27.618,15.967H275.32A28.122,28.122,0,0,0,247.5,91.574Z" transform="translate(-146.392 -71.031)" fill="#fba24a"/>
          </g>
        </g>
        <path id="Path_1849" data-name="Path 1849" d="M195.554,83.531l-17.392,0L162.223,115.07h10.309l-12.609,30.22,33.43-40.734-12.636,0h0Z" transform="translate(-125.916 -52.12)" fill="#ffc84f"/>
      </g>
      <g id="Group_1953" data-name="Group 1953" transform="translate(91.302 61.754)">
        <g id="Group_1948" data-name="Group 1948">
          <g id="Group_1947" data-name="Group 1947">
            <path id="Path_1850" data-name="Path 1850" d="M165.532,108.693A19.637,19.637,0,0,0,157.585,89.5a19.644,19.644,0,0,0-27.239-22.4A19.644,19.644,0,0,0,97.33,79.492a19.642,19.642,0,0,0-5.778,34.788,19.643,19.643,0,0,0,27.239,22.4,19.644,19.644,0,0,0,33.017-12.39A19.643,19.643,0,0,0,165.532,108.693Z" transform="translate(-83.334 -61.754)" fill="#f4ede6"/>
          </g>
        </g>
        <g id="Group_1950" data-name="Group 1950" transform="translate(82.598 72.415)">
          <g id="Group_1949" data-name="Group 1949">
            <circle id="Ellipse_106" data-name="Ellipse 106" cx="7.594" cy="7.594" r="7.594" fill="#f4ede6"/>
          </g>
        </g>
        <g id="Group_1952" data-name="Group 1952" transform="translate(104.063 92.255)">
          <g id="Group_1951" data-name="Group 1951">
            <circle id="Ellipse_107" data-name="Ellipse 107" cx="4.107" cy="4.107" r="4.107" fill="#f4ede6"/>
          </g>
        </g>
      </g>
      <g id="Group_1956" data-name="Group 1956" transform="translate(114.683 86.484)">
        <g id="Group_1955" data-name="Group 1955">
          <g id="Group_1954" data-name="Group 1954">
            <path id="Path_1851" data-name="Path 1851" d="M110.7,105.468l-14.8-14.8a11.177,11.177,0,0,1,14.8-16.7,11.177,11.177,0,0,1,14.793,16.7Z" transform="translate(-92.637 -71.594)" fill="#e33d28"/>
          </g>
        </g>
      </g>
      <g id="Group_1971" data-name="Group 1971" transform="translate(129.139 147.465)">
        <g id="Group_1957" data-name="Group 1957" transform="translate(120.916 206.228)">
          <path id="Path_1852" data-name="Path 1852" d="M178.128,177.924l.023-.009H146.5Z" transform="translate(-146.501 -177.914)" fill="none"/>
        </g>
        <g id="Group_1958" data-name="Group 1958" transform="translate(35.497 143.096)">
          <path id="Path_1853" data-name="Path 1853" d="M112.513,171.567l10.312,8.654-2.174-27.426Z" transform="translate(-112.513 -152.794)" fill="none"/>
        </g>
        <g id="Group_1959" data-name="Group 1959" transform="translate(176.688 143.096)">
          <path id="Path_1854" data-name="Path 1854" d="M170.866,152.794l-2.174,27.426L179,171.567Z" transform="translate(-168.691 -152.794)" fill="none"/>
        </g>
        <g id="Group_1960" data-name="Group 1960" transform="translate(4.612 72.548)">
          <path id="Path_1855" data-name="Path 1855" d="M216.53,258.4h31.649l22.011-9.093.533-6.72,32.836-13.825a16.237,16.237,0,0,0,8.834-20.842l-18.3-47.086a56.617,56.617,0,0,0-52.773-36.113H172.4a56.619,56.619,0,0,0-52.773,36.113L101.33,207.923a16.235,16.235,0,0,0,8.834,20.842L143,242.591l.528,6.678,22.044,9.121Zm57.943-63.133,8.14,18.774L272.3,222.7ZM131.109,214.045l8.138-18.774,2.174,27.427Z" transform="translate(-100.224 -124.724)" fill="#ffb900"/>
        </g>
        <g id="Group_1961" data-name="Group 1961" transform="translate(69.994 206.228)">
          <path id="Path_1856" data-name="Path 1856" d="M126.239,177.914l41.252,17.069,41.3-17.06-31.628-.009Z" transform="translate(-126.239 -177.914)" fill="#512f1e"/>
        </g>
        <g id="Group_1962" data-name="Group 1962" transform="translate(69.957 206.213)">
          <path id="Path_1857" data-name="Path 1857" d="M177.183,177.923l-50.959-.015.037.015Z" transform="translate(-126.225 -177.908)" fill="#512f1e"/>
        </g>
        <g id="Group_1965" data-name="Group 1965" transform="translate(79.755)">
          <g id="Group_1963" data-name="Group 1963">
            <path id="Path_1858" data-name="Path 1858" d="M191.374,122.639a26.782,26.782,0,0,0-26.781-26.781h-9.379a25.089,25.089,0,0,0-25.09,25.087h14.4l7.723-13.3,7.723,13.3h11.287a9.493,9.493,0,1,1,0,18.985v8.623A26.771,26.771,0,0,0,191.374,122.639Z" transform="translate(-130.123 -95.858)" fill="#923c2b"/>
          </g>
          <g id="Group_1964" data-name="Group 1964" transform="translate(0 11.787)">
            <path id="Path_1859" data-name="Path 1859" d="M171.255,113.848H159.968l-7.723-13.3-7.723,13.3h-14.4v12.868a17.189,17.189,0,0,0,17.191,17.191h3.375v17.4h20.566V132.833a9.493,9.493,0,1,0,0-18.985Z" transform="translate(-130.123 -100.548)" fill="#f08d84"/>
          </g>
        </g>
        <g id="Group_1970" data-name="Group 1970" transform="translate(0 189.537)">
          <g id="Group_1966" data-name="Group 1966">
            <path id="Path_1860" data-name="Path 1860" d="M319.952,189.384a24.754,24.754,0,0,0-33.281-16.173l-13.7,5.66-22.011,9.093-.023.01-41.3,17.06-41.253-17.07-.035-.015L146.3,178.828l-13.69-5.665a24.753,24.753,0,1,0-12.908,47.385l20.938,2.943-1.443-5.127a5.632,5.632,0,0,1,8.977-5.891c.146.123.3.229.437.369l12.333,12.3h0l.352,1.252.437,1.556,3.232,11.491h0l44.658-6.251,44.651,6.278,3.24-11.491.44-1.556.352-1.249,11.408-11.367.93-.927a5.641,5.641,0,0,1,9.412,5.527l-1.445,5.127,20.94-2.933A24.755,24.755,0,0,0,319.952,189.384Z" transform="translate(-98.389 -171.273)" fill="#5c3b2b"/>
          </g>
          <g id="Group_1969" data-name="Group 1969" transform="translate(40.583 39.914)">
            <g id="Group_1967" data-name="Group 1967">
              <path id="Path_1861" data-name="Path 1861" d="M136.865,202.364l-.352-1.252h0l-12.333-12.3c-.141-.141-.292-.246-.437-.369a5.632,5.632,0,0,0-8.977,5.891l1.443,5.127,5.941,21.124,18.384-5.172L137.3,203.92Z" transform="translate(-114.537 -187.154)" fill="#f8b782"/>
            </g>
            <g id="Group_1968" data-name="Group 1968" transform="translate(115.306 0.019)">
              <path id="Path_1862" data-name="Path 1862" d="M176.785,188.836l-.93.927-11.408,11.367-.352,1.249-.44,1.556-3.24,11.491,18.382,5.182,5.954-21.119,1.445-5.127A5.641,5.641,0,0,0,176.785,188.836Z" transform="translate(-160.416 -187.162)" fill="#f8b782"/>
            </g>
          </g>
        </g>
      </g>
      <g id="Group_1975" data-name="Group 1975" transform="translate(193.46 240.722)">
        <g id="Group_1972" data-name="Group 1972">
          <path id="Path_1863" data-name="Path 1863" d="M216.917,179.432c0-3.23-5.924-5.989-10.629-7.128,3.911-2.855,8.326-7.67,7.092-10.654s-7.763-3.267-12.549-2.518c2.523-4.134,4.758-10.274,2.476-12.559s-8.424-.048-12.559,2.476c.749-4.785.467-11.312-2.518-12.549s-7.8,3.179-10.654,7.092c-1.139-4.707-3.9-10.629-7.128-10.629s-5.989,5.921-7.13,10.629c-2.853-3.913-7.668-8.329-10.654-7.092s-3.267,7.763-2.518,12.549c-4.132-2.523-10.272-4.76-12.556-2.476s-.048,8.424,2.476,12.559c-4.785-.749-11.312-.467-12.549,2.518s3.179,7.8,7.092,10.654c-4.707,1.139-10.629,3.9-10.629,7.128s5.921,5.989,10.629,7.128c-3.913,2.855-8.329,7.67-7.092,10.656s7.763,3.267,12.549,2.518c-2.523,4.132-4.76,10.272-2.476,12.556s8.424.048,12.556-2.476c-.749,4.785-.465,11.312,2.518,12.549s7.8-3.179,10.654-7.092c1.141,4.707,3.9,10.629,7.13,10.629s5.989-5.921,7.128-10.629c2.855,3.913,7.67,8.329,10.654,7.092s3.267-7.763,2.518-12.549c4.134,2.523,10.274,4.76,12.559,2.476s.048-8.424-2.476-12.556c4.785.749,11.312.465,12.549-2.518s-3.182-7.8-7.092-10.656C210.993,185.421,216.917,182.661,216.917,179.432Z" transform="translate(-123.982 -132.964)" fill="#ffcd00"/>
        </g>
        <g id="Group_1974" data-name="Group 1974" transform="translate(14.002 14.002)">
          <g id="Group_1973" data-name="Group 1973" transform="translate(0 0)">
            <circle id="Ellipse_108" data-name="Ellipse 108" cx="28.298" cy="28.298" r="28.298" transform="translate(0 55.865) rotate(-80.783)" fill="#483c32"/>
          </g>
        </g>
      </g>
    </g>
  </g>
</svg>
